# xmcd CD database file
#
# Track frame offsets:
#	151
#	31940
#	61488
#	91865
#	125283
#	155696
#	185955
#	219839
#	247854
#	275029
#	308760
#
# Disc length: 4433 seconds
#
# Revision: 0
# Processed by: cddbd v1.5.2PL0 Copyright (c) Steve Scherf et al.
# Submitted via: CDex 1.70beta2
#
DISCID=95114f0b
DTITLE=Varios All Star - SAR Grandes Exitos
DYEAR=1900
DGENRE=Salsa
TTITLE0=Caballo Viejo - Roberto Torres
TTITLE1=El fiel enamorado - La India de Oriente
TTITLE2=Anichayi - Laba Sosseh
TTITLE3=Chocolate sabroso - Chocolate Armenteros
TTITLE4=Ahora me da pena - Henry Fiol
TTITLE5=El tractor amarillo - Roberto Torres
TTITLE6=Cancion de la serrania - La India de Oriente
TTITLE7=Cucho-Cheche-Malo - Linda Leida
TTITLE8=Don lengua - Alfredo Valdez
TTITLE9=Somo los reyes del mundo - Alfredo de la Fe
TTITLE10=Cartagena - Gonzalo Fernandez
EXTD=
EXTT0=
EXTT1=
EXTT2=
EXTT3=
EXTT4=
EXTT5=
EXTT6=
EXTT7=
EXTT8=
EXTT9=
EXTT10=
PLAYORDER=
